<?xml version="1.0" encoding="UTF-8"?>
<svg id="Layer_1" data-name="Layer 1" xmlns="http://www.w3.org/2000/svg" viewBox="0 0 986.77978 483.70654">
  <defs>
    <style>
      .cls-1 {
        fill: #fff;
      }

      .cls-2 {
        fill: #4f7caa;
      }

      .cls-3 {
        fill: #14a0c1;
      }

      .cls-4, .cls-5 {
        stroke-miterlimit: 133.33333;
      }

      .cls-4, .cls-5, .cls-6 {
        fill: none;
        stroke: #000;
        stroke-width: 2px;
      }

      .cls-5, .cls-6 {
        stroke-linecap: round;
      }

      .cls-7 {
        fill: #70bc0d;
      }

      .cls-8 {
        font-family: MontserratRoman-SemiBold, Montserrat;
        font-size: 34px;
        font-variation-settings: 'wght' 600;
        font-weight: 600;
      }

      .cls-9 {
        fill: #5059ac;
      }

      .cls-10 {
        fill: #7de412;
      }

      .cls-11 {
        fill: #00cd99;
      }

      .cls-6 {
        stroke-linejoin: round;
      }

      .cls-12 {
        fill-rule: evenodd;
      }
    </style>
  </defs>
  <rect class="cls-1" x="37.27978" y="2.02783" width="732" height="473"/>
  <g>
    <g>
      <path class="cls-2" d="m553.08246,133.73293c1.49031-2.4219,3.1602-4.7363,5.02931-6.9131-9.33981-7.666-19.67771-14.082-30.80271-18.9424-.9102,2.7627-2.0215,5.4268-3.332,7.9727,10.5244,4.5761,20.2929,10.6308,29.1054,17.8828Z"/>
      <polygon class="cls-2" points="547.09427 123.22123 554.72896 111.63623 558.89306 122.68893 563.07078 133.74173 551.26906 134.27293 539.46927 134.80613 547.09427 123.22123"/>
    </g>
    <g>
      <path class="cls-3" d="m607.12356,238.49173c0,5.5156-.4844,10.9306-1.3604,16.2402,3.05962.1172,6.10062.4395,9.0967.9717.9277-5.627,1.4404-11.3692,1.4404-17.2119,0-5.4561-.4639-10.8174-1.2744-16.0909-2.99808.4952-6.0469.7715-9.1162.8516.7744,4.9902,1.2139,10.0713,1.2139,15.2393Z"/>
      <polygon class="cls-3" points="612.09126 245.97703 625.94386 246.77293 618.46826 255.91653 611.00246 265.07663 604.62356 255.13033 598.24366 245.19093 612.09126 245.97703"/>
    </g>
    <g>
      <path class="cls-11" d="m525.40278,366.86863c1.27349,2.7022,2.35059,5.5244,3.21679,8.4492,11.3477-5.0048,21.92-11.6504,31.4678-19.6679-1.8584-2.2803-3.5771-4.6895-5.0752-7.2676-8.9775,7.541-18.9219,13.7891-29.60939,18.4863Z"/>
      <polygon class="cls-11" points="537.17037 366.55323 543.90867 378.68413 532.18407 377.25633 520.45357 375.84713 525.44387 365.14013 530.43207 354.43213 537.17037 366.55323"/>
    </g>
    <g>
      <path class="cls-10" d="m392.78757,347.99173c-1.4355,2.5117-3.0517,4.8974-4.834,7.1386,8.84521,8.127,18.645,14.877,29.18221,19.9678.80809-2.9248,1.80169-5.749,2.97849-8.4502-9.8682-4.75-19.0454-11.0586-27.3267-18.6562Z"/>
      <polygon class="cls-10" points="397.76078 358.87453 388.89847 369.55423 385.97607 358.11083 383.03178 346.66843 394.82367 347.43503 406.61087 348.19873 397.76078 358.87453"/>
    </g>
    <g>
      <path class="cls-7" d="m336.08887,244.19483c0-5.6367.50291-11.1738,1.4355-16.5938-3.05659-.1738-6.084-.5742-9.0649-1.1572-1.0083,5.7979-1.5479,11.7188-1.5479,17.751,0,5.3252.4493,10.5615,1.2378,15.7109,2.9883-.5517,6.023-.9013,9.0845-1.0429-.7275-4.8067-1.145-9.6944-1.145-14.668Z"/>
      <polygon class="cls-7" points="331.98487 235.67433 318.11767 235.12063 325.43457 225.84813 332.73678 216.56103 339.28957 226.39213 345.83987 236.22123 331.98487 235.67433"/>
    </g>
    <g>
      <path class="cls-9" d="m417.28217,115.18413c-1.1987-2.7061-2.2216-5.5293-3.0371-8.459-10.8081,4.8877-20.8935,11.4052-30.0097,19.3213,1.7822,2.2841,3.39841,4.707,4.8266,7.2558,8.5669-7.4326,18.05181-13.5449,28.2202-18.1181Z"/>
      <polygon class="cls-9" points="406.93557 116.53173 398.10987 105.82173 409.89937 105.09913 421.68897 104.35693 418.72267 115.79443 415.75637 127.22803 406.93557 116.53173"/>
    </g>
    <path class="cls-11" d="m470.59027,344.65383c-26.477.3886-47.7026,22.248-47.3168,48.7275.3906,26.4795,22.246,47.7051,48.728,47.3194,26.4746-.3907,47.7099-22.2481,47.31931-48.7256-.38871-26.4815-22.24611-47.7071-48.73051-47.3213Zm1.25,84.8535c-20.3442.2978-37.0703-15.9453-37.3706-36.2871-.2978-20.3418,15.9522-37.0694,36.28911-37.3701,20.33739-.295,37.06589,15.9492,37.36569,36.291.2959,20.3349-15.9472,37.0654-36.2842,37.3662Z"/>
    <path class="cls-2" d="m645.35786,141.40483c-13.57908-22.7325-43.125-30.1934-65.8564-16.6163-22.7412,13.5772-30.1953,43.1182-16.6211,65.8623,13.5771,22.7393,43.1221,30.1895,65.85641,16.6133,22.74418-13.5742,30.19528-43.1152,16.62108-65.8593Zm-22.3554,56.2451c-17.4688,10.4297-40.0782,4.7217-50.5059-12.7432-10.42678-17.4609-4.7207-40.0742,12.7441-50.501,17.4629-10.4287,40.0733-4.7246,50.5,12.7393,10.4297,17.4678,4.7246,40.0742-12.7382,50.5049Z"/>
    <path class="cls-3" d="m626.53956,275.75533c-23.125-12.9052-52.4356-4.5898-65.3457,18.5371-12.9034,23.128-4.586,52.4415,18.542,65.3438,23.124,12.9033,52.4335,4.5898,65.3437-18.5391,12.9004-23.125,4.585-52.4414-18.54-65.3418Zm8.7597,59.8848c-9.9121,17.7666-32.3437,24.1289-50.10448,14.2168-17.76662-9.9121-24.13371-32.3467-14.22162-50.1074,9.9121-17.7588,32.3437-24.126,50.1093-14.2139,17.7618,9.9092,24.127,32.3408,14.2168,50.1045Z"/>
    <path class="cls-9" d="m473.26117,41.31493c-26.4819,0-48.0297,21.5449-48.0297,48.0274,0,26.4843,21.5478,48.0293,48.0297,48.0293,26.4844,0,48.0303-21.545,48.0303-48.0293,0-26.4825-21.5459-48.0274-48.0303-48.0274Zm0,84.8584c-20.3393,0-36.8261-16.4922-36.8261-36.831,0-20.3399,16.4868-36.8291,36.8261-36.8291,20.3418,0,36.8291,16.4892,36.8291,36.8291,0,20.3388-16.4873,36.831-36.8291,36.831Z"/>
    <path class="cls-10" d="m381.67917,291.37063c-13.5786-22.7393-43.1221-30.1905-65.8613-16.6162-22.7393,13.5761-30.1904,43.1172-16.6162,65.8642,13.5742,22.7285,43.125,30.1895,65.8569,16.6133,22.74121-13.5762,30.1948-43.1201,16.6206-65.8613Zm-22.3603,56.2451c-17.4634,10.4297-40.0733,4.7236-50.5005-12.7393-10.4273-17.4687-4.7241-40.0761,12.7417-50.5029,17.4658-10.4326,40.07571-4.7246,50.5029,12.7393,10.4243,17.4609,4.7217,40.0732-12.7441,50.5029Z"/>
    <path class="cls-7" d="m364.82417,122.38423c-23.125-12.9052-52.434-4.5888-65.3442,18.5411-12.898,23.124-4.585,52.4414,18.54,65.3408,23.1275,12.9072,52.439,4.5898,65.3487-18.5391,12.9004-23.125,4.5825-52.4404-18.5445-65.3428Zm8.7622,59.8877c-9.9121,17.7588-32.3437,24.126-50.1123,14.2139-17.7612-9.9101-24.1259-32.3418-14.2138-50.1055,9.9121-17.7636,32.3437-24.1308,50.1049-14.2158,17.7662,9.9121,24.1304,32.3457,14.2212,50.1074Z"/>
  </g>
  <text class="cls-8" transform="translate(36.31152 147.32437)"><tspan x="0" y="0">Création d’un</tspan><tspan x="68.13477" y="40.80029">patch</tspan></text>
  <text class="cls-8" transform="translate(408.32684 28.8998)"><tspan x="0" y="0">Review</tspan></text>
  <text class="cls-8" transform="translate(660.77972 174.90002)"><tspan x="0" y="0">Builds</tspan></text>
  <text class="cls-8" transform="translate(663.77984 331.89972)"><tspan x="0" y="0">Tests</tspan></text>
  <text class="cls-8" transform="translate(404.14453 474.89996)"><tspan x="0" y="0">Release</tspan></text>
  <text class="cls-8" transform="translate(93.04376 311.89966)"><tspan x="0" y="0">Feedback</tspan><tspan x="29.29053" y="40.80029">&amp; fixes</tspan></text>
  <path class="cls-5" d="m601.24962,293.82744l21.11807,12.11672m-21.11807-12.11672l-2.09881-1.24074m2.09881,1.24074l-8.9108,15.3807m30.02887-3.26397l-5.66802,9.7834m5.66802-9.7834l2.11063,1.21493m-7.77865,8.56847l-4.30212,7.42588m4.30212-7.42588l-6.42279-3.69546m2.12067,11.12134l-4.11154,7.09695m4.11154-7.09695l-10.55296-6.07177m6.44142,13.16872l-3.75449,6.48054c-3.36456,5.80737-10.81622,7.79724-16.64379,4.44422-5.82756-3.35301-7.82425-10.77889-4.4597-16.58626l3.26641-5.63814m21.59157,11.29964l-6.56018-3.77433"/>
  <path class="cls-4" d="m633.1577,320.31118c0,2.889-2.24822,5.23088-5.02173,5.23088s-5.02173-2.34189-5.02173-5.23088c0-1.80757,1.96601-4.22026,3.43762-5.77298.87127-.91948,2.29693-.91948,3.1682,0,1.47162,1.55272,3.43762,3.96541,3.43762,5.77298Z"/>
  <g>
    <path d="m453.57007,70.743v37.20056h28.44761v-6.56482h-2.18834v4.37668h-24.07099v-32.82414h24.07099v4.37654h2.18834v-6.56482h-28.44761Z"/>
    <path class="cls-12" d="m478.73527,99.19061c2.32497,0,4.46161-.80583,6.14631-2.15326l6.20314,6.20888c.42712.42753,1.11992.42774,1.54725.00082.42753-.42712.42794-1.11992.00082-1.54745l-6.20396-6.2095c1.34784-1.6847,2.15367-3.82175,2.15367-6.14678,0-5.43848-4.40889-9.84722-9.84722-9.84722s-9.84729,4.40875-9.84729,9.84722,4.40875,9.84729,9.84729,9.84729Zm0-2.18834c4.22979,0,7.65888-3.42909,7.65888-7.65895s-3.42909-7.65897-7.65888-7.65897-7.65903,3.42903-7.65903,7.65897,3.42903,7.65895,7.65903,7.65895Z"/>
  </g>
  <path d="m605.90239,178.75379h-3.56587c-.61481,0-1.10665-.36888-1.22961-.98369l-.61481-2.2133-.49184-.24592-1.96738,1.10665c-.49184.24592-1.10665.24592-1.47553-.24592l-2.58218-2.58219c-.36888-.36888-.49184-.98369-.24592-1.47554l1.10665-1.96738-.24592-.49184-2.2133-.61481c-.49184-.12296-.98369-.61481-.98369-1.22961v-3.56587c0-.61481.36888-1.10665.98369-1.22961l2.2133-.61481q.12296-.24592.24592-.49184l-1.10665-1.96738c-.24592-.49184-.24592-1.10665.24592-1.47553l2.58219-2.58218c.36888-.36888.98369-.49184,1.47553-.24592l1.96738,1.10665q.24592-.12296.49184-.24592l.61481-2.2133c.12296-.49185.61481-.98369,1.22961-.98369h3.56587c.61481,0,1.10665.36888,1.22961.98369l.61481,2.2133.49184.24592,1.96738-1.10665c.49184-.24592,1.10665-.24592,1.47554.24592l2.58219,2.58219c.36888.36888.49184.98369.24592,1.47553l-1.10665,1.96738.24592.49184,2.2133.61481c.49184.12296.98369.61481.98369,1.22961v3.56587c0,.61481-.36888,1.10665-.98369,1.22961l-2.2133.61481q-.12296.24592-.24592.49184l1.10665,1.96738c.24592.49184.24592,1.10665-.24592,1.47554l-2.58219,2.58219c-.36888.36888-.98369.49184-1.47554.24592l-1.96738-1.10665q-.24592.12296-.49184.24592l-.61481,2.2133c-.24593.6148-.73777.98369-1.22961.98369Zm-2.70515-2.45922h1.72146l.61481-2.58219.61481-.24592c.49184-.12296.86073-.36888,1.35257-.49184l.61481-.36888,2.33626,1.35257,1.22961-1.22961-1.35257-2.33626.36888-.61481c.24592-.36888.36888-.86073.49184-1.35257l.24592-.61481,2.58219-.61481v-1.72146l-2.58218-.61481-.24592-.61481c-.12296-.49184-.36888-.86073-.49184-1.35257l-.36888-.61481,1.35257-2.33626-1.22961-1.22961-2.33626,1.35257-.61481-.36888c-.36888-.24592-.86073-.36888-1.35257-.49184l-.61481-.24592-.61481-2.58219h-1.72146l-.61481,2.58219-.61481.24592c-.49184.12296-.86073.36888-1.35257.49184l-.61481.36888-2.33626-1.35257-1.22961,1.22961,1.35257,2.33626-.36888.61481c-.24592.36888-.36888.86073-.49184,1.35257l-.24592.61481-2.58219.61481v1.72146l2.58219.61481.24592.61481c.12296.49184.36888.86073.49184,1.35257l.36888.61481-1.35257,2.33626,1.22961,1.22961,2.33626-1.35257.61481.36888c.36888.24592.86073.36888,1.35257.49184l.61481.24592.61481,2.58219Zm12.0502-8.11544h0Z"/>
  <path d="m604.11946,171.31464c-2.95107,0-5.28733-2.33626-5.28733-5.28733s2.33626-5.28733,5.28733-5.28733,5.28733,2.33626,5.28733,5.28733-2.33626,5.28733-5.28733,5.28733Zm0-8.11544c-1.59849,0-2.82811,1.22961-2.82811,2.82811s1.22961,2.82811,2.82811,2.82811,2.82811-1.22961,2.82811-2.82811-1.22961-2.82811-2.82811-2.82811Z"/>
  <path d="m604.11945,146.35351c-.73777,0-1.22961.49185-1.22961,1.22961s.49184,1.22961,1.22961,1.22961c9.46802,0,17.21457,7.74656,17.21457,17.21457s-7.74656,17.21457-17.21457,17.21457-17.21457-7.74656-17.21457-17.21457c0-3.44291.98369-6.76287,2.95107-9.59098v1.47553c0,.73777.49185,1.22961,1.22961,1.22961s1.22961-.49184,1.22961-1.22961v-6.14806h-6.14806c-.73777,0-1.22961.49185-1.22961,1.22961s.49185,1.22961,1.22961,1.22961h2.2133c-2.58219,3.31995-3.93476,7.50063-3.93476,11.80428,0,10.82059,8.85321,19.6738,19.6738,19.6738s19.6738-8.85321,19.6738-19.6738-8.85321-19.6738-19.6738-19.6738Z"/>
  <g>
    <rect x="332.55332" y="316.58334" width="28.26918" height="2.28358"/>
    <circle cx="332.43521" cy="296.3067" r="5.03963"/>
    <path d="m339.60093,321.07176c-.59058-.59058-1.29928-.90556-2.00798-.90556h-8.50438v-6.33891l-4.40968-7.52007c-.15749-.2756-.03937-.7087.19686-.86619.27561-.15749.7087-.03937.86619.19686l5.03963,8.70124c.35435.66932,1.06305,1.10242,1.88986,1.10242h8.74061c1.22054,0,2.20484-1.02367,2.20484-2.20484,0-1.22054-1.02367-2.20484-2.20484-2.20484l-7.28384.07874-5.7877-9.76428c-.39372-.78744-1.25991-1.18116-2.28358-1.18116-.11812,0-.43309.03937-.62995.07874-.11812.03937-.31498.07874-.43309.11812-4.25219,1.37802-7.63819,8.11066-7.63819,15.07952-.03937,2.08672,0,3.85847.11812,5.55147-.15749,2.00798,1.02367,3.97659,2.99228,4.72465.55121.15749,1.02367.2756,1.57488.2756h12.67782v11.85101c0,1.65363,1.25991,2.87417,2.87416,2.87417,1.65363,0,2.87416-1.25991,2.87416-2.87417v-14.76454c0-.70871-.27561-1.49615-.86619-2.00799Z"/>
    <path d="m363.53918,304.2205v-2.20484h-1.22054c-.07874-.39372-.23623-.78744-.43309-1.10242l.86619-.86619-1.57488-1.57488-.86619.86619c-.35435-.19686-.74807-.35435-1.10242-.43309v-1.22054h-2.16547v1.22054c-.39372.07874-.78744.23623-1.10242.43309l-.86619-.86619-1.57488,1.57488.82681.86619c-.19686.35435-.35435.74807-.43309,1.10242h-1.22054v2.16547h1.22054c.07874.39372.23623.78744.43309,1.10242l-.86619.86619,1.57488,1.57488.86619-.86619c.35435.19686.74807.35435,1.10242.43309v1.22054h2.16547v-1.22054c.39372-.07874.78744-.23623,1.10242-.43309l.86619.86619,1.57488-1.57488-.86619-.86619c.19686-.35435.35435-.74807.43309-1.10242h1.25991v.03937Zm-5.43335,1.85049c-1.65363,0-2.95291-1.29928-2.95291-2.95291s1.29928-2.95291,2.95291-2.95291,2.95291,1.29928,2.95291,2.95291c-.03937,1.61426-1.37802,2.95291-2.95291,2.95291Z"/>
    <path d="m354.24736,308.51206v1.18116c-.03937,0-.07874.03937-.15749.07874-.03937,0-.07874.03937-.07874.03937l-.82681-.82681-1.06305,1.06305.82681.82681c-.03937.07874-.07874.15749-.07874.23623h-1.18116v1.49614h1.18116c.03937.07874.07874.15749.07874.19686l-.86619.86619,1.06305,1.06305.86619-.86619c.07874.03937.11812.03937.19686.07874v1.22054h1.49614v-1.22054c.03937,0,.07874-.03937.11812-.03937s.03937,0,.07874-.03937l.86619.86619,1.06305-1.06305-.86619-.86619c.03937-.07874.07874-.11812.07874-.19686h1.22054v-1.49614h-1.18116c-.03937-.07874-.03937-.15749-.07874-.19686l.86619-.82681-1.06305-1.06305-.82681.82681c-.07874-.03937-.15749-.07874-.23623-.07874v-1.18116l-1.49614-.07874Zm1.53551,3.77972c-.23623.43309-.82681.62995-1.25991.35435-.43309-.23623-.62995-.82681-.35435-1.25991.23623-.43309.82681-.62995,1.25991-.35435.47247.23623.66933.82681.35435,1.25991Z"/>
    <path d="m344.20747,307.44901l-1.4174,1.4174,1.73237,1.77175,1.4174-1.4174c.07874.03937.11812.03937.15749.07874.03937,0,.07874.03937.11812.03937v2.04735h2.48044v-2.00797c.11812-.03937.19686-.07874.31498-.11812l1.4174,1.4174,1.77175-1.73237-1.37802-1.37802c.03937-.11812.11812-.23623.15749-.35435h1.96861v-2.48044h-1.96861c-.03937-.11812-.07874-.23623-.15749-.35435l1.4174-1.4174-1.73237-1.77175-1.37802,1.37802c-.07874-.03937-.15749-.07874-.23623-.07874-.03937,0-.07874-.03937-.15749-.07874v-1.92923h-2.48044v1.92923c-.11812.03937-.23623.07874-.35435.15749l-1.33865-1.37802-1.77175,1.73237,1.37802,1.37802c-.03937.11812-.11812.23623-.15749.35435h-1.96861v2.48044h2.00798c.03937.11811.07874.23623.15749.31498Zm2.71668-3.81909c1.22054-.31498,2.55919.39372,2.87416,1.65363.31498,1.22054-.39372,2.55919-1.65363,2.87417-1.22054.31498-2.55919-.39372-2.87416-1.65363-.35435-1.22054.39372-2.51982,1.65363-2.87417Z"/>
  </g>
  <path d="m470.12578,399.08257l-12.55714-6.60864-3.22898,3.88554,3.15005,1.66113.07176.0287.06458.0287.06817.04305.05382.03588,9.90579,5.23812,2.51143-4.30531-.03947-.00718Zm-1.07633-8.91557c.01264-.1085.04679-.2134.10046-.30855.05175-.09481.12117-.17884.2045-.24755.08639-.06827.18503-.11942.29061-.15069.10492-.0295.21442-.03924.3229-.0287.10827.01143.21317.04437.30855.09687.09651.05228.18184.12298.25114.20809.13724.17356.20273.39313.18297.61351l-.20809,1.87998.81083.78213.89335-.93999-.34084-1.77594c-.02156-.10414-.02156-.21159,0-.31572.0208-.10799.06353-.21056.12557-.30137.06185-.09116.1411-.16919.2332-.22962.0918-.05943.19408-.10083.30137-.12198.10655-.02155.21634-.02155.3229,0,.10772.02361.20999.06743.30137.12916.09116.06185.16919.1411.22962.2332.05943.0918.10083.19408.12198.30137l.42336,2.19929c.00723.06318.00723.12697,0,.19015-.00345.06441-.01429.12821-.03229.19015-.01828.06244-.04356.12262-.07534.17939-.03201.05782-.07185.11094-.1184.15786l-1.79388,1.86922c-.07578.07764-.16596.13979-.26549.18298-.09957.04376-.20696.06695-.31572.06817h-.01794c-.10441.00077-.20798-.01873-.30496-.05741-.101-.03956-.19354-.09801-.27267-.17221l-1.69342-1.63602c-.04748-.04394-.08962-.09331-.12557-.1471h0c-.03422-.05069-.06308-.1048-.08611-.16145-.021-.06192-.03661-.12554-.04664-.19015h0c-.00718-.06198-.00718-.12458,0-.18656l.27267-2.31051Zm1.77235-13.42538c.08753-.03841.17895-.06728.27267-.08611.09456-.01859.19066-.0282.28702-.0287h0c.09044.0003.18061.00992.26908.0287.09357.01773.18497.04539.27267.08252h0c.08456.03664.16613.07983.24397.12916.07923.05306.15259.1144.21885.18298.06862.06753.12994.14209.18297.22244.05263.07901.09711.16315.13275.25114.03841.08753.06728.17895.08611.27267.01843.09337.02804.18826.0287.28343h0c-.0003.09044-.00992.18061-.0287.26908h0c-.01703.08867-.04349.17527-.07893.25832-.03543.0899-.08119.17538-.13634.25473-.05069.07996-.11093.15346-.17939.21885-.06753.06862-.14209.12994-.22244.18298-.07901.05263-.16315.09711-.25114.13275-.08753.03841-.17895.06728-.27267.08611h0c-.09098.01824-.18347.02785-.27626.0287h0c-.09044-.0003-.18061-.00992-.26908-.0287h-.01794c-.08738-.01755-.17274-.044-.25473-.07893-.08914-.03562-.17447-.08009-.25473-.13275-.07853-.05399-.15181-.11525-.21885-.18298h0c-.06422-.06473-.1219-.13564-.17221-.21168-.05263-.07901-.09711-.16315-.13275-.25114h0c-.03563-.08577-.06325-.17464-.08252-.26549-.01859-.09455-.0282-.19066-.0287-.28702h0c.0003-.09044.00992-.18061.0287-.26908h0c.01755-.08738.044-.17274.07893-.25473h0c.03664-.08456.07983-.16613.12916-.24397.05399-.07853.11525-.15181.18297-.21885.06753-.06862.14209-.12994.22244-.18298.07901-.05263.16315-.09711.25114-.13275l-.01076-.0287Zm-3.046,6.58712c-.10046-.21885-.19733-.43771-.28343-.65297s-.20091-.50587-.28702-.74984-.17939-.5274-.25114-.78931-.13992-.52022-.19374-.77496-.10763-.57404-.13992-.85389c-.03578-.27616-.05734-.55398-.06458-.83236-.00849-.27399-.0025-.54824.01794-.8216.01769-.26944.05003-.53773.09687-.80366.04772-.27695.11-.5512.18656-.8216.07893-.26908.16862-.53816.27626-.80366.10638-.26891.22612-.53234.35878-.78931h0c.14719-.26272.30765-.51778.48076-.76419.16145-.24755.33725-.4987.53099-.74267s.39824-.49511.61351-.73549.45206-.48435.71755-.71755.50946-.48076.78572-.71755c.04512-.05509.0956-.10557.15069-.15069.06367-.03873.13096-.07118.20091-.09687h0c.07382-.03103.15082-.05389.22962-.06817h0c.06573-.00357.1316-.00357.19733,0,.07108.00311.14184.01151.21168.02511.13739.02575.26879.07685.38748.15069.05753.0355.11158.07634.16145.12198.30496.25473.59198.50946.86106.76778s.52022.51664.74984.77496.45206.52022.66015.78213h0c.19374.25832.35878.51664.53099.77854s.30855.53816.44129.81083c.1334.26763.25315.54184.35878.8216.09567.27506.17819.55132.24756.82877.06503.27819.11533.55963.15069.84312v.03947c.03229.26191.05023.52381.06099.78572s0,.53816,0,.80366-.04305.54534-.08252.81442-.08611.54893-.14351.8216-.11481.48793-.18298.74267-.1471.50587-.22603.74625-.15786.45923-.25114.71755-.15427.40542-.23679.61351c.15786.15786.3229.31572.49152.47358.43467.40118.84897.82386,1.24136,1.26648.03186.03669.0618.07502.08969.11481.0293.04047.05453.08374.07534.12916.02542.04299.04588.08873.06099.13634.01862.04522.03303.09206.04305.13992,0,.04664,0,.09687.02511.15069.00358.05136.00358.10291,0,.15427.00381.05016.00381.10053,0,.15069h0c-.00708.04357-.01667.08669-.0287.12916l-.24038.86824c-.13275.57763-.26549,1.16243-.41618,1.75082h0c-.01977.07283-.04619.14369-.07893.21168-.03439.06869-.07397.13466-.1184.19733h0c-.04213.05645-.09025.10818-.14351.15427-.05509.05133-.11519.097-.17939.13634-.06442.04063-.13297.0743-.2045.10046-.06944.02775-.14159.04819-.21526.06099-.07388.00887-.14856.00887-.22244,0-.07165.00547-.14361.00547-.21526,0l-.07893-.01794-.10763-.03588c-.1302-.0443-.25163-.11109-.35878-.19733-.53015-.4225-1.09009-.8062-1.67548-1.14808-.35782-.21325-.75853-.34437-1.1732-.38389-.40115-.0046-.79906.0723-1.16961.22603-.45206.16862-.98663.43053-1.65754.75702-.02158.01039-.04453.01764-.06817.02153h-.01794l-.11122.06458h0l-.16145.08252-.63862.30855c-.07101.03531-.14558.06297-.22244.08252-.07679.01747-.15472.02946-.2332.03588-.15727.00829-.31462-.01489-.46282-.06817-.14809-.05367-.2845-.13527-.40183-.24038-.05918-.05213-.11324-.1098-.16145-.17221h0c-.04441-.06143-.08399-.1262-.1184-.19374-.04757-.10274-.08135-.21131-.10046-.3229-.1758-.78931-.35878-1.79388-.45923-2.60112-.00356-.04538-.00356-.09096,0-.13634h0c-.00359-.04777-.00359-.09574,0-.14351h0l.02153-.13992c0-.05023.02511-.09687.03947-.14351s.03588-.09328.0574-.13992c.02257-.04637.04897-.09077.07893-.13275h0c.02547-.03854.05301-.07567.08252-.11122l.10763-.10763,1.72212-1.56785-.01794-.00359Zm.61709-3.30791c.05382.24397.11481.49152.18656.73908s.15786.50587.25473.76778.2045.53099.3229.80007c.1184.26908.24397.54175.38748.82877h0c.03634.07966.06053.16431.07176.25114.03443.26824-.06476.53632-.26549.71755l-1.98762,1.83693.30496,1.73288c.15069-.07534.31213-.16145.46641-.22962.80366-.38748,1.4351-.71755,2.00914-.9077.50737-.20812,1.05182-.31066,1.60014-.30137.53929.03191,1.06487.18261,1.53915.44129.5969.31913,1.16684.68629,1.70418,1.09785l.39824-1.68266-1.89433-1.89433-.02511-.0287c-.0515-.05722-.09495-.12119-.12916-.19015-.03455-.06776-.05873-.14033-.07176-.21526v-.01794c-.01272-.07721-.01272-.15599,0-.2332.00846-.08152.02901-.16133.06099-.23679h0c.11481-.26908.22244-.5274.31931-.77496s.19015-.50229.27626-.7606.16504-.4987.2332-.74267.12916-.48793.17939-.71755.09328-.46641.12557-.69244.05382-.45565.06817-.68167.01794-.44488,0-.66373c-.00411-.21845-.02088-.43647-.05023-.65297v-.02153c-.05809-.45157-.16516-.89548-.31931-1.32388-.07947-.2246-.17048-.44494-.27267-.66015-.10846-.22475-.22821-.44389-.35878-.65656-.13634-.21885-.28343-.43771-.44847-.65656s-.35878-.43771-.53816-.66015-.38389-.41259-.59557-.61709-.35878-.35878-.56687-.5274c-.17939.16145-.35878.3229-.50946.48076s-.38389.35877-.54892.54534c-.16504.18656-.35878.41618-.52381.62427s-.30855.41259-.44129.62427-.26191.41618-.35878.62786-.22244.43412-.30496.63503c-.08523.20968-.15831.42411-.21885.64221-.06101.21797-.10775.43968-.13992.66373-.03866.21358-.06501.4292-.07893.6458,0,.22244-.02153.44129,0,.66373s.02511.44488.05382.67809.06817.47.11481.71755l-.0287-.01435Zm17.16023,10.58029c.04472.02001.08687.04531.12557.07534.0403.02838.07757.06084.11122.09687.02944.03185.05699.0654.08252.10046.02004.02983.03802.061.05382.09328l4.29095,5.11255c.07048.08279.12301.1793.15427.28343.03486.10384.04709.21394.03588.3229-.00826.11022-.03877.21762-.08969.31572h0c-.0503.09167-.11721.17318-.19733.24038l-.08252.06099c-.02626.01765-.05385.03324-.08252.04664l-3.68462,1.94457v7.41589c.00094.08153-.01117.16268-.03588.24038-.02359.07885-.05865.15379-.10405.22244-.04407.0679-.09855.12843-.16145.17939-.06112.05056-.12868.09278-.20091.12557l-13.84874,7.02482c-.02898.03013-.06151.05664-.09687.07893-.04221.02855-.08659.05375-.13275.07534-.05312.0233-.1084.04132-.16504.05382h0c-.05489.00528-.11015.00528-.16504,0-.07652.00035-.15267-.01053-.22603-.03229-.07428-.02022-.14548-.05039-.21168-.08969-.05483-.03463-.1054-.07557-.15069-.12198h0c-.03032-.02978-.05794-.0622-.08252-.09687l-13.83797-6.91361c-.0682-.0355-.13202-.07884-.19015-.12916-.05551-.05323-.10376-.11355-.14351-.17939-.03842-.05772-.06861-.12051-.08969-.18656-.01887-.06311-.0309-.12806-.03588-.19374v-7.42307l-3.77791-2.00197c-.04825-.02814-.09388-.06056-.13633-.09687-.07936-.0684-.14509-.15118-.19374-.24397-.05279-.09783-.08571-.20513-.09687-.31572-.01121-.10896.00102-.21906.03588-.3229.0327-.10353.08508-.19977.15427-.28343l4.35195-5.20224c.01388-.02041.03082-.03856.05023-.05382l.06817-.06099.06458-.04305.05023-.0287c.02964-.02355.0608-.04513.09328-.06458l.05023-.02511,6.6517-3.30432c.0974-.04886.20346-.07811.31213-.08611.10944-.00764.21929.00701.3229.04305.10394.03518.20016.08999.28343.16145.0812.07315.14811.16074.19733.25832h0c.04616.0982.07412.20395.08252.31213.00385.10811-.01071.21608-.04305.31931-.03855.10177-.09573.19545-.16862.27626-.07163.08283-.15956.15001-.25832.19733l-5.30988,2.67288,12.11944,6.35391,12.1589-6.38979-5.25606-2.61189c-.09814-.04832-.18589-.11535-.25832-.19733-.07238-.08324-.12837-.1794-.16504-.28343-.03289-.10429-.04626-.21376-.03947-.3229.00489-.10989.03302-.21749.08252-.31572.04922-.09758.11612-.18517.19733-.25832.08377-.07075.17985-.12548.28343-.16145.10366-.03585.21347-.0505.3229-.04305.10975.00843.21689.03765.31572.08611l6.61582,3.29356Zm-15.03269,21.83508v-10.70945l-1.82975,3.19669c-.05222.09141-.12167.17182-.2045.23679-.08358.06561-.17841.11546-.27984.1471h0c-.10003.0294-.20481.03915-.30855.0287-.10742-.011-.21197-.04139-.30855-.08969l-9.51114-5.02286v5.97361l12.47821,6.23911h-.03588Zm1.67189-10.46189v10.52289l12.41722-6.29651v-6.02025l-9.58289,5.06591c-.09658.0483-.20112.07869-.30855.08969h0c-.10611.0104-.21323.00066-.31572-.0287-.10274-.03285-.19874-.08389-.28343-.15069-.08294-.06629-.15236-.14789-.2045-.24038l-1.70777-2.94196h-.01435Zm12.82981-9.50038l-12.55714,6.60864,2.51143,4.30531,13.31416-7.03559-3.22898-3.88554-.03947.00718Z"/>
  <g id="ic-medicine-patch">
    <rect class="cls-6" x="322.06687" y="156.10585" width="38.73008" height="16.44092" rx="3.87301" ry="3.87301" transform="translate(-16.19315 289.55888) rotate(-45)"/>
    <rect class="cls-6" x="333.19667" y="144.96018" width="16.44092" height="38.73008" rx="3.87301" ry="3.87301" transform="translate(-16.19671 289.54811) rotate(-45)"/>
  </g>
  <text class="cls-8" transform="translate(390.01751 247.7554)"><tspan x="0" y="0">PIPELINE</tspan></text>
</svg>